# xmcd
#
# Track frame offsets:
#	150
#	47330
#	66605
#	86967
#	115310
#	140677
#	158282
#	174912
#	204747
#	219920
#	234070
#	261932
#	272745
#	281775
#	290822
#	305500
#
# Disc length: 4268 seconds
#
# Revision: 1
# Processed by: cddbd v1.5.1PL0 Copyright (c) Steve Scherf et al.
# Submitted via: audiograbber 1.83.01
#
DISCID=f210aa10
DTITLE=Crosby, Stills, Nash and Young - Live at Fillmore East
DYEAR=1900
DGENRE=
TTITLE0=Judy Blue Eyes
TTITLE1=On the Way Home
TTITLE2=Tell Me Why
TTITLE3=Triad
TTITLE4=Guineveve
TTITLE5=Simple Man
TTITLE6=The Man In the Mirror
TTITLE7=Down By The River
TTITLE8=Only Love Can Break Your Heart
TTITLE9=Blue Bird
TTITLE10=Black Queen
TTITLE11=4 and 20
TTITLE12=49 Bye Byes
TTITLE13=For What it's Worth
TTITLE14=America's Children
TTITLE15=Love The One You're With
EXTD=
EXTT0=
EXTT1=
EXTT2=
EXTT3=
EXTT4=
EXTT5=
EXTT6=
EXTT7=
EXTT8=
EXTT9=
EXTT10=
EXTT11=
EXTT12=
EXTT13=
EXTT14=
EXTT15=
PLAYORDER=
